<svg width="54" height="60" viewBox="0 0 54 60" fill="none" xmlns="http://www.w3.org/2000/svg">
<path fill-rule="evenodd" clip-rule="evenodd" d="M27 0C24.4125 0 20.0888 0.99375 16.02 2.1C11.8575 3.225 7.66125 4.55625 5.19375 5.3625C4.16209 5.70319 3.24746 6.32799 2.55493 7.16513C1.8624 8.00226 1.42007 9.01777 1.27874 10.095C-0.956262 26.8838 4.22999 39.3263 10.5225 47.5575C13.1909 51.0786 16.3726 54.1794 19.9613 56.7563C21.4088 57.78 22.7513 58.5638 23.8913 59.1C24.9413 59.595 26.07 60 27 60C27.93 60 29.055 59.595 30.1088 59.1C31.4831 58.432 32.7979 57.6479 34.0388 56.7563C37.6275 54.1795 40.8092 51.0787 43.4775 47.5575C49.7701 39.3263 54.9563 26.8838 52.7213 10.095C52.5802 9.01725 52.138 8.00115 51.4455 7.16337C50.753 6.3256 49.8382 5.70011 48.8063 5.35875C45.2243 4.1843 41.6145 3.09648 37.98 2.09625C33.9113 0.9975 29.5875 0 27 0ZM27 18.75C28.3284 18.748 29.6147 19.2162 30.6309 20.0717C31.6472 20.9272 32.3279 22.1148 32.5524 23.424C32.777 24.7333 32.531 26.0798 31.8579 27.2251C31.1848 28.3703 30.1281 29.2404 28.875 29.6812L30.3188 37.1437C30.3713 37.4152 30.3632 37.6949 30.2949 37.9628C30.2267 38.2307 30.1001 38.4802 29.9241 38.6934C29.7481 38.9066 29.5272 39.0783 29.2771 39.1961C29.027 39.314 28.754 39.3751 28.4775 39.375H25.5225C25.2464 39.3745 24.9738 39.313 24.7241 39.195C24.4745 39.0769 24.254 38.9051 24.0785 38.692C23.9029 38.4788 23.7767 38.2295 23.7086 37.9619C23.6406 37.6942 23.6326 37.4149 23.685 37.1437L25.125 29.6812C23.8719 29.2404 22.8152 28.3703 22.1421 27.2251C21.4691 26.0798 21.223 24.7333 21.4476 23.424C21.6722 22.1148 22.3529 20.9272 23.3691 20.0717C24.3854 19.2162 25.6716 18.748 27 18.75Z" fill="white"/>
</svg>
