<svg width="38" height="54" viewBox="0 0 38 54" fill="none" xmlns="http://www.w3.org/2000/svg">
<path d="M19 0.75V13.875C19 15.3668 19.5926 16.7976 20.6475 17.8525C21.7024 18.9074 23.1332 19.5 24.625 19.5H37.75V47.625C37.75 49.1168 37.1574 50.5476 36.1025 51.6025C35.0476 52.6574 33.6168 53.25 32.125 53.25H5.875C4.38316 53.25 2.95242 52.6574 1.89752 51.6025C0.842632 50.5476 0.25 49.1168 0.25 47.625V6.375C0.25 4.88316 0.842632 3.45242 1.89752 2.39752C2.95242 1.34263 4.38316 0.75 5.875 0.75H19ZM22.75 1.6875V13.875C22.75 14.3723 22.9475 14.8492 23.2992 15.2008C23.6508 15.5525 24.1277 15.75 24.625 15.75H36.8125L22.75 1.6875Z" fill="white"/>
</svg>
